<svg version="1.0" xmlns="http://www.w3.org/2000/svg"
 width="926.000000pt" height="230.000000pt" viewBox="0 0 926.000000 230.000000"
 preserveAspectRatio="xMidYMid meet">
<g transform="translate(0.000000,230.000000) scale(0.100000,-0.100000)"
fill="#000000" stroke="none">
<path d="M8292 2080 c-189 -27 -349 -128 -413 -260 -81 -168 -60 -398 50 -535
75 -93 167 -151 404 -254 175 -76 267 -135 302 -196 76 -128 18 -281 -125
-329 -134 -44 -338 -27 -550 45 -63 22 -123 42 -132 46 -17 5 -18 -6 -18 -140
l0 -146 58 -21 c130 -49 225 -63 427 -64 215 0 279 11 401 69 184 89 274 235
274 445 0 242 -103 372 -395 502 -44 20 -123 55 -175 78 -52 23 -119 58 -149
78 -159 106 -157 311 3 395 32 17 64 22 148 25 122 5 204 -10 356 -63 94 -32
94 -32 103 -11 4 11 26 66 48 121 35 89 38 101 24 112 -25 19 -189 71 -278 88
-100 20 -279 27 -363 15z"/>
<path d="M553 1464 l-413 -595 0 -115 0 -114 415 0 415 0 0 -195 0 -195 145 0
145 0 0 195 0 195 125 0 125 0 0 125 0 125 -125 0 -125 0 0 585 0 585 -147 0
-148 0 -412 -596z m419 -166 l-3 -408 -270 0 -270 0 44 63 c158 222 433 631
464 688 21 37 38 67 38 66 0 -1 -1 -185 -3 -409z"/>
<path d="M1540 2048 c0 -7 140 -414 312 -905 l312 -893 162 0 162 0 10 28 c76
212 622 1774 622 1777 0 3 -71 5 -158 5 l-159 0 -201 -597 c-111 -329 -218
-662 -238 -740 l-37 -143 -33 128 c-28 109 -91 300 -396 1205 l-50 147 -154 0
c-114 0 -154 -3 -154 -12z"/>
<path d="M3350 1155 l0 -905 155 0 155 0 0 905 0 905 -155 0 -155 0 0 -905z"/>
<path d="M4120 1155 l0 -905 520 0 520 0 0 125 0 125 -365 0 -365 0 0 280 0
280 340 0 340 0 0 130 0 130 -340 0 -340 0 0 240 0 240 365 0 365 0 0 130 0
130 -520 0 -520 0 0 -905z"/>
<path d="M5310 2054 c0 -3 58 -227 129 -497 72 -271 171 -652 221 -847 50
-195 98 -379 106 -408 l15 -52 167 2 167 3 152 545 c84 300 168 614 187 699
19 84 37 155 39 158 3 2 8 -18 12 -44 12 -84 81 -343 228 -858 l142 -500 167
-3 167 -2 15 52 c23 81 456 1745 456 1752 0 3 -69 6 -154 6 l-154 0 -22 -87
c-95 -379 -276 -1130 -295 -1226 -13 -65 -25 -120 -27 -123 -2 -2 -10 31 -17
74 -20 124 -73 325 -224 857 l-143 500 -151 3 -151 3 -11 -33 c-25 -82 -286
-1025 -311 -1128 -15 -64 -33 -151 -40 -193 -7 -43 -16 -74 -20 -70 -3 4 -16
62 -29 128 -17 95 -255 1083 -301 1256 l-11 39 -154 0 c-85 0 -155 -3 -155 -6z"/>
</g>
</svg>
